<?xml version="1.0" encoding="UTF-8"?>
<svg xmlns="http://www.w3.org/2000/svg" xmlns:xlink="http://www.w3.org/1999/xlink" viewBox="0 0 1701.15 1588.26">
  <defs>
    <style>
      .cls-1 {
        fill: none;
      }

      .cls-2 {
        fill: #7f9b64;
      }

      .cls-3 {
        fill: #4d94ce;
      }

      .cls-4 {
        fill: #ffb300;
      }

      .cls-5 {
        clip-path: url(#clippath-1);
      }

      .cls-6 {
        clip-path: url(#clippath-3);
      }

      .cls-7 {
        clip-path: url(#clippath-2);
      }

      .cls-8 {
        fill: #1976d2;
      }

      .cls-9 {
        fill: #ef5d59;
      }

      .cls-10 {
        fill: #f44336;
      }

      .cls-11 {
        fill: #689f38;
      }

      .cls-12 {
        clip-path: url(#clippath);
      }
    </style>
    <clipPath id="clippath">
      <rect class="cls-1" x="893.68" y="879.21" width="807.47" height="709.05"/>
    </clipPath>
    <clipPath id="clippath-1">
      <rect class="cls-1" y="942.42" width="1155.18" height="645.84"/>
    </clipPath>
    <clipPath id="clippath-2">
      <rect class="cls-1" y="775.76" width="1568.97" height="812.5"/>
    </clipPath>
    <clipPath id="clippath-3">
      <path class="cls-1" d="M1183.62,117.9c-9.9-9.73-20.27-18.94-31.1-27.61-10.83-8.68-22.08-16.79-33.73-24.34-11.65-7.53-23.66-14.47-36.02-20.79-12.36-6.33-25-12.01-37.93-17.06-12.93-5.04-26.09-9.42-39.47-13.13-13.38-3.7-26.91-6.73-40.59-9.08-13.68-2.33-27.44-3.98-41.3-4.93-13.85-.94-27.71-1.19-41.59-.73-6.61.24-13.21.64-19.81,1.19-6.59.55-13.17,1.26-19.72,2.12-6.57.86-13.1,1.89-19.61,3.06-6.51,1.17-13,2.5-19.44,3.97-6.45,1.48-12.86,3.12-19.23,4.91-6.38,1.77-12.71,3.72-18.98,5.79-6.29,2.09-12.5,4.31-18.69,6.69-6.17,2.38-12.28,4.89-18.34,7.57-6.05,2.67-12.04,5.48-17.97,8.42-5.92,2.95-11.76,6.04-17.54,9.27-5.78,3.22-11.47,6.58-17.1,10.08-5.61,3.49-11.15,7.12-16.59,10.88-5.46,3.76-10.81,7.64-16.07,11.65-5.25,4.01-10.43,8.14-15.49,12.39-5.07,4.25-10.04,8.63-14.9,13.12-4.86,4.49-9.61,9.09-14.26,13.81s-9.17,9.53-13.58,14.46c-4.42,4.93-8.72,9.96-12.9,15.09-4.18,5.13-8.23,10.36-12.16,15.68-3.93,5.33-7.73,10.74-11.4,16.24-3.68,5.5-7.22,11.09-10.63,16.76-3.41,5.67-6.69,11.42-9.82,17.24-3.14,5.83-6.14,11.72-9,17.69-2.85,5.97-5.57,12-8.15,18.09-2.57,6.1-5.01,12.25-7.29,18.45-2.28,6.22-4.42,12.47-6.41,18.79-1.99,6.31-3.82,12.66-5.51,19.06-1.68,6.4-3.22,12.83-4.6,19.31-1.38,6.47-2.6,12.96-3.68,19.5-1.08,6.52-2,13.08-2.76,19.64-.76,6.58-1.38,13.17-1.83,19.77-.46,6.6-.75,13.21-.9,19.82-.38,22.55,1.1,44.99,4.43,67.29,3.33,22.32,8.47,44.19,15.43,65.65,6.96,21.46,15.63,42.21,26.02,62.22,10.39,20.03,22.36,39.06,35.9,57.1,7.49,11.24,194.84,271.74,254.7,354.72,1.09,1.5,2.23,2.99,3.4,4.43,1.18,1.44,2.4,2.85,3.66,4.22,1.27,1.38,2.56,2.71,3.91,4.01,1.34,1.29,2.72,2.55,4.12,3.77,1.41,1.21,2.86,2.38,4.34,3.51,1.48,1.13,3,2.21,4.55,3.26s3.12,2.03,4.73,2.99c1.61.94,3.23,1.85,4.89,2.71,1.66.85,3.33,1.65,5.04,2.4,1.71.75,3.43,1.46,5.17,2.11,1.75.65,3.51,1.26,5.3,1.8,1.77.55,3.57,1.04,5.39,1.49,1.81.44,3.63.83,5.47,1.17,1.83.33,3.67.62,5.52.84,1.85.22,3.7.39,5.57.52,1.85.11,3.72.18,5.58.19,1.86,0,3.73-.04,5.59-.15,1.86-.1,3.72-.26,5.57-.47,1.85-.2,3.69-.47,5.53-.79,1.84-.33,3.66-.7,5.48-1.12,1.82-.43,3.61-.91,5.4-1.44,1.78-.54,3.56-1.12,5.31-1.76,1.75-.63,3.48-1.32,5.19-2.05,1.72-.74,3.4-1.53,5.07-2.37,1.66-.84,3.3-1.73,4.92-2.66,1.61-.93,3.19-1.92,4.75-2.94,1.55-1.03,3.08-2.1,4.57-3.22,1.49-1.11,2.95-2.28,4.38-3.48,1.41-1.2,2.81-2.45,4.15-3.73,1.36-1.29,2.66-2.6,3.94-3.97,1.27-1.36,2.5-2.76,3.69-4.19,1.19-1.44,2.33-2.91,3.43-4.41,2.28-3.01,249.47-341,259.09-353.26,13.28-17.9,25.07-36.74,35.35-56.52,10.29-19.78,18.95-40.24,25.99-61.39,7.03-21.15,12.35-42.72,15.95-64.72,3.61-21.99,5.46-44.14,5.55-66.42.04-13.87-.61-27.71-1.95-41.52-1.36-13.8-3.39-27.5-6.12-41.11-2.74-13.59-6.14-27.02-10.23-40.27-4.09-13.26-8.82-26.28-14.22-39.05-5.39-12.77-11.42-25.26-18.07-37.42-6.66-12.17-13.9-23.98-21.74-35.41-7.85-11.44-16.24-22.45-25.2-33.05-8.95-10.6-18.42-20.71-28.39-30.35Z"/>
    </clipPath>
  </defs>
  <g id="Layer_4" data-name="Layer 4">
    <path class="cls-8" d="M1558.6,923.9l-49.45-160.74c-1.38-4.53-2.93-8.99-4.67-13.4-1.73-4.4-3.64-8.72-5.71-12.98-2.08-4.25-4.32-8.41-6.73-12.48-2.41-4.07-4.98-8.04-7.71-11.91-2.73-3.86-5.61-7.61-8.64-11.25s-6.2-7.14-9.51-10.52c-3.31-3.39-6.75-6.62-10.32-9.73s-7.26-6.06-11.07-8.88c-3.81-2.81-7.72-5.47-11.74-7.96-4.02-2.5-8.13-4.84-12.34-7-4.2-2.17-8.49-4.16-12.85-5.99-4.37-1.82-8.8-3.47-13.29-4.94-4.5-1.47-9.05-2.76-13.65-3.87-4.6-1.1-9.24-2.02-13.92-2.76-4.67-.74-9.36-1.28-14.09-1.65-4.71-.36-9.44-.53-14.17-.51H362.22c-4.74-.02-9.46.15-14.18.52-4.71.36-9.42.91-14.09,1.64-4.68.74-9.32,1.66-13.92,2.77-4.6,1.1-9.15,2.39-13.65,3.86-4.49,1.48-8.92,3.12-13.29,4.95-4.37,1.83-8.65,3.83-12.86,5.99-4.2,2.17-8.32,4.5-12.34,7-4.02,2.49-7.94,5.15-11.74,7.96-3.81,2.82-7.5,5.77-11.07,8.88-3.57,3.11-7,6.35-10.32,9.73s-6.49,6.89-9.51,10.53c-3.03,3.64-5.92,7.39-8.64,11.25-2.73,3.87-5.3,7.83-7.71,11.91s-4.66,8.23-6.75,12.48c-2.08,4.25-3.98,8.58-5.71,12.99-1.74,4.4-3.29,8.87-4.67,13.39l-26.14,85.06c-.98,3.18-1.67,6.41-2.11,9.7s-.58,6.59-.47,9.91c.12,3.32.52,6.6,1.19,9.86.67,3.24,1.62,6.42,2.82,9.52,1.2,3.09,2.65,6.06,4.36,8.91,1.69,2.85,3.63,5.55,5.77,8.07,2.16,2.53,4.5,4.86,7.04,6.99,2.55,2.13,5.25,4.04,8.1,5.72l871.48,512.64c2.9,1.71,5.9,3.15,9.05,4.34,3.13,1.19,6.34,2.11,9.63,2.76,3.3.64,6.62,1.01,9.98,1.09,3.35.09,6.69-.11,10-.59,3.32-.48,6.58-1.23,9.77-2.27,3.2-1.04,6.27-2.33,9.25-3.9,2.97-1.55,5.79-3.35,8.46-5.38,2.66-2.03,5.14-4.28,7.43-6.73l407.85-436.98c3.57-3.82,6.58-8.04,9.04-12.65,2.45-4.61,4.27-9.47,5.43-14.56,1.18-5.1,1.67-10.25,1.49-15.48-.19-5.22-1.04-10.33-2.58-15.32Z"/>
    <path class="cls-2" d="M485.76,951.67l-233.15-137.18c-1.93-1.13-3.91-2.16-5.95-3.06s-4.13-1.69-6.26-2.38c-2.13-.67-4.3-1.22-6.49-1.65-2.2-.43-4.41-.74-6.65-.92-2.22-.18-4.46-.24-6.69-.16-2.23.07-4.46.27-6.68.58-2.21.33-4.4.77-6.56,1.35-2.17.56-4.29,1.26-6.38,2.07-2.09.81-4.12,1.73-6.1,2.77-1.99,1.03-3.9,2.18-5.75,3.43s-3.63,2.62-5.32,4.06c-1.71,1.46-3.31,3.01-4.84,4.65s-2.95,3.36-4.28,5.15c-1.34,1.8-2.56,3.66-3.67,5.6-1.12,1.93-2.13,3.93-3.02,5.98-.9,2.04-1.67,4.14-2.32,6.27l-117.79,382.84c-.91,2.94-1.58,5.93-2.02,8.98-.44,3.04-.64,6.11-.61,9.18s.3,6.13.81,9.16c.52,3.03,1.26,6.01,2.22,8.92.98,2.93,2.17,5.75,3.58,8.49,1.4,2.73,3.02,5.34,4.84,7.82s3.82,4.82,5.99,6.98c2.18,2.18,4.5,4.16,6.99,5.98,2.48,1.81,5.1,3.41,7.83,4.82,2.74,1.41,5.57,2.59,8.49,3.56,2.92.97,5.89,1.71,8.94,2.21,3.03.51,6.08.76,9.16.8,3.08.02,6.14-.18,9.18-.63s6.04-1.12,8.98-2.03c2.93-.91,5.78-2.04,8.54-3.4,2.76-1.36,5.41-2.91,7.92-4.68l350.95-245.66c1.01-.71,2-1.45,2.97-2.22.97-.76,1.91-1.57,2.83-2.4.91-.83,1.81-1.68,2.67-2.57s1.69-1.81,2.5-2.74c.81-.94,1.58-1.91,2.33-2.9.74-.98,1.46-1.99,2.14-3.02s1.34-2.09,1.95-3.17c.62-1.07,1.2-2.16,1.75-3.27s1.07-2.23,1.54-3.38c.48-1.13.93-2.29,1.34-3.46.4-1.18.77-2.36,1.11-3.55s.63-2.39.89-3.6.48-2.42.66-3.65c.19-1.22.33-2.46.44-3.69.1-1.23.17-2.47.2-3.7.02-1.23.02-2.47-.03-3.72-.04-1.23-.13-2.47-.26-3.69-.12-1.23-.29-2.46-.49-3.68s-.44-2.44-.72-3.65c-.28-1.2-.59-2.4-.94-3.58-.36-1.19-.74-2.37-1.17-3.52-.43-1.17-.89-2.31-1.39-3.45-.49-1.13-1.03-2.24-1.59-3.35-.57-1.1-1.17-2.19-1.81-3.24-.64-1.07-1.3-2.11-2-3.13-.71-1.02-1.44-2.02-2.2-2.99-.76-.98-1.55-1.93-2.38-2.85-.82-.93-1.67-1.83-2.55-2.71s-1.78-1.72-2.71-2.53c-.93-.82-1.89-1.61-2.87-2.37-.98-.75-1.98-1.47-3.01-2.17-1.02-.7-2.07-1.36-3.13-1.99Z"/>
    <g class="cls-12">
      <path class="cls-11" d="M1692.01,1357.52l-133.44-433.62c-.37-1.23-.8-2.47-1.26-3.67-.46-1.21-.95-2.41-1.49-3.59s-1.12-2.33-1.74-3.48c-.61-1.13-1.26-2.26-1.95-3.36-.68-1.1-1.4-2.17-2.17-3.22-.75-1.06-1.55-2.08-2.37-3.08-.83-1-1.68-1.96-2.57-2.91-.9-.94-1.81-1.86-2.76-2.74-.94-.89-1.92-1.74-2.93-2.56-1-.82-2.03-1.61-3.09-2.36s-2.13-1.46-3.24-2.14c-1.1-.68-2.22-1.32-3.37-1.93s-2.3-1.18-3.49-1.71c-1.18-.54-2.38-1.03-3.59-1.48s-2.44-.86-3.68-1.23c-1.23-.37-2.49-.71-3.75-1-1.27-.29-2.54-.54-3.82-.74-1.28-.21-2.56-.38-3.85-.51s-2.58-.2-3.88-.24c-1.29-.04-2.59-.04-3.88.01-1.29.04-2.58.13-3.87.26-1.29.13-2.57.3-3.85.52s-2.55.47-3.82.77c-1.26.29-2.5.63-3.75,1.01-1.23.38-2.46.8-3.67,1.26s-2.41.97-3.59,1.49c-1.18.54-2.33,1.12-3.48,1.73-1.13.62-2.26,1.27-3.36,1.95s-2.18,1.41-3.22,2.17c-1.06.76-2.08,1.55-3.08,2.37-1,.83-1.98,1.68-2.92,2.57s-1.86,1.81-2.74,2.76l-548.28,587.45c-1.96,2.1-3.76,4.33-5.41,6.7-1.64,2.37-3.1,4.84-4.38,7.42-1.27,2.58-2.36,5.24-3.26,7.98-.89,2.73-1.58,5.52-2.07,8.36-.49,2.83-.77,5.69-.84,8.56-.08,2.88.06,5.75.4,8.61.34,2.86.89,5.68,1.65,8.45.75,2.78,1.69,5.49,2.85,8.13,1.14,2.65,2.47,5.19,4,7.63,1.52,2.45,3.2,4.77,5.05,6.98,1.86,2.2,3.86,4.25,6.02,6.16s4.43,3.66,6.84,5.23c2.41,1.58,4.92,2.99,7.53,4.2s5.3,2.23,8.05,3.05c2.76.83,5.57,1.45,8.42,1.86,2.85.42,5.71.63,8.59.63h568.1c3.47,0,6.94-.1,10.41-.3s6.93-.51,10.37-.91c3.46-.4,6.89-.91,10.3-1.52,3.42-.61,6.82-1.31,10.2-2.12,3.38-.8,6.72-1.71,10.06-2.71,3.32-1,6.61-2.09,9.88-3.29,3.26-1.19,6.49-2.48,9.68-3.86,3.18-1.38,6.33-2.85,9.43-4.41,3.1-1.57,6.15-3.22,9.15-4.96,3.01-1.74,5.96-3.57,8.86-5.49s5.74-3.92,8.52-5.99c2.77-2.08,5.49-4.24,8.15-6.48,2.65-2.24,5.24-4.56,7.76-6.95s4.96-4.86,7.34-7.39c2.37-2.54,4.67-5.14,6.89-7.81,2.22-2.66,4.37-5.4,6.43-8.19,2.07-2.78,4.04-5.63,5.94-8.55,1.9-2.91,3.7-5.87,5.43-8.88,1.72-3.02,3.36-6.08,4.91-9.19,1.54-3.11,3-6.26,4.36-9.46,1.36-3.19,2.63-6.42,3.79-9.69,1.17-3.28,2.24-6.58,3.22-9.91.98-3.32,1.86-6.69,2.65-10.07.77-3.38,1.46-6.79,2.04-10.21.58-3.42,1.07-6.86,1.45-10.3.38-3.46.66-6.91.84-10.38.18-3.47.26-6.94.24-10.42-.02-3.47-.15-6.94-.37-10.41s-.55-6.91-.98-10.36c-.43-3.46-.95-6.88-1.58-10.29-.63-3.42-1.36-6.81-2.18-10.19-.83-3.37-1.75-6.71-2.77-10.04Z"/>
    </g>
    <g class="cls-5">
      <path class="cls-3" d="M1124.05,1327.14l-638.33-375.46c-2.44-1.44-4.97-2.69-7.59-3.77-2.63-1.07-5.31-1.95-8.06-2.65-2.75-.68-5.52-1.18-8.34-1.47s-5.65-.38-8.47-.27-5.65.43-8.43.93c-2.78.52-5.52,1.22-8.21,2.13-2.68.9-5.29,1.99-7.82,3.27-2.53,1.28-4.95,2.73-7.27,4.36l-350.93,245.66c-5.42,3.79-10.08,8.36-13.97,13.72-3.88,5.34-6.8,11.18-8.74,17.51l-38.92,126.41c-1.02,3.31-1.95,6.66-2.77,10.04-.83,3.38-1.56,6.77-2.19,10.18-.63,3.42-1.16,6.85-1.58,10.29-.43,3.45-.75,6.9-.98,10.37s-.35,6.94-.37,10.41c-.02,3.48.06,6.95.24,10.42s.46,6.93.84,10.38c.38,3.45.86,6.89,1.45,10.32s1.27,6.82,2.04,10.2c.79,3.39,1.66,6.75,2.65,10.08.98,3.33,2.04,6.63,3.22,9.9,1.17,3.27,2.44,6.5,3.79,9.7,1.36,3.2,2.82,6.35,4.36,9.46,1.55,3.11,3.18,6.17,4.91,9.19,1.72,3.01,3.54,5.97,5.43,8.88s3.87,5.77,5.94,8.55c2.07,2.79,4.2,5.53,6.42,8.19,2.22,2.67,4.52,5.28,6.9,7.81,2.37,2.54,4.82,5,7.34,7.39,2.51,2.39,5.11,4.7,7.76,6.95,2.65,2.23,5.38,4.4,8.15,6.48,2.78,2.09,5.62,4.09,8.52,6.01,2.9,1.91,5.85,3.74,8.85,5.48,3.01,1.75,6.06,3.4,9.16,4.97,3.1,1.56,6.25,3.03,9.43,4.41,3.19,1.38,6.42,2.67,9.68,3.86,3.27,1.19,6.56,2.29,9.89,3.29,3.32,1,6.68,1.91,10.06,2.71,3.38.81,6.77,1.52,10.19,2.12,3.42.61,6.86,1.11,10.3,1.52s6.9.71,10.37.91,6.94.3,10.42.3h774.14c4.07,0,8.12-.42,12.1-1.25,3.98-.83,7.86-2.05,11.6-3.68,3.73-1.63,7.26-3.61,10.6-5.96,3.32-2.36,6.38-5.03,9.16-8l140.42-150.47c1.52-1.62,2.94-3.32,4.27-5.11,1.31-1.77,2.54-3.63,3.66-5.55,1.11-1.91,2.12-3.88,3.02-5.92s1.67-4.11,2.33-6.22c.66-2.12,1.21-4.27,1.63-6.44.43-2.18.73-4.38.9-6.59.18-2.21.24-4.42.16-6.65-.07-2.21-.26-4.42-.58-6.61-.31-2.2-.75-4.37-1.31-6.52-.56-2.14-1.25-4.25-2.04-6.32-.8-2.08-1.72-4.09-2.74-6.06-1.02-1.96-2.16-3.87-3.39-5.71s-2.58-3.6-4.02-5.3c-1.43-1.69-2.95-3.3-4.57-4.82s-3.31-2.94-5.1-4.28c-1.77-1.32-3.61-2.56-5.53-3.68Z"/>
    </g>
    <g class="cls-7">
      <path class="cls-4" d="M1568.43,956.49l-589.58,631.77h-162.26l183.06-196.13-541.43-318.56L1.18,1393.32c1.16-12.19,3.73-24.08,7.72-35.66l45.17-146.2,291.82-204.45-193.75-114.11,35.66-116.49,895.06,526.58,437.42-468.34c2.36-2.87,5.13-5.24,8.33-7.13l39.81,128.97Z"/>
    </g>
  </g>
  <g id="Layer_3" data-name="Layer 3">
    <g class="cls-6">
      <path class="cls-10" d="M958.89,441.77c-12.94,22.72-37.36,38.06-65.38,38.06-41.53,0-75.2-33.67-75.2-75.2,0-32.62,20.77-60.37,49.8-70.79V0c-6.62.42-13.24.99-19.84,1.71-6.6.73-13.18,1.61-19.74,2.65-6.57,1.04-13.09,2.24-19.6,3.6-6.5,1.35-12.96,2.86-19.4,4.53-6.43,1.66-12.81,3.48-19.16,5.45-6.34,1.97-12.63,4.09-18.88,6.36-6.24,2.27-12.42,4.68-18.55,7.25-6.12,2.57-12.19,5.28-18.18,8.13-6,2.85-11.92,5.85-17.77,8.99-5.85,3.14-11.63,6.41-17.32,9.83-5.7,3.41-11.31,6.96-16.84,10.64-5.53,3.69-10.97,7.49-16.31,11.44-5.34,3.94-10.59,8-15.74,12.2-5.15,4.19-10.2,8.51-15.14,12.94-4.95,4.43-9.79,8.98-14.51,13.65-4.73,4.67-9.33,9.44-13.83,14.33-4.5,4.88-8.88,9.88-13.14,14.97-4.26,5.09-8.4,10.29-12.4,15.58-4.01,5.29-7.9,10.68-11.65,16.16-3.76,5.48-7.38,11.04-10.86,16.69-3.49,5.65-6.83,11.38-10.05,17.2-3.21,5.81-6.28,11.69-9.22,17.66-2.93,5.96-5.72,11.99-8.36,18.07-2.64,6.09-5.14,12.24-7.49,18.46-2.35,6.21-4.55,12.47-6.6,18.79-2.05,6.31-3.95,12.67-5.7,19.08-1.75,6.42-3.34,12.86-4.78,19.34-1.44,6.49-2.73,13-3.86,19.55-1.12,6.55-2.09,13.11-2.91,19.71-.81,6.59-1.46,13.2-1.97,19.82-.49,6.62-.84,13.25-1.01,19.89-.18,6.64-.2,13.28-.07,19.92.14,6.63.43,13.27.89,19.9.45,6.62,1.07,13.23,1.84,19.83.77,6.6,1.7,13.17,2.78,19.72,1.09,6.55,2.33,13.07,3.72,19.57,1.4,6.49,2.95,12.95,4.66,19.36,1.7,6.42,3.55,12.8,5.57,19.13,2.01,6.32,4.17,12.6,6.47,18.83,2.32,6.23,4.77,12.4,7.38,18.51,2.6,6.11,5.35,12.15,8.25,18.13,2.89,5.97,5.93,11.88,9.1,17.72,3.18,5.83,6.49,11.58,9.94,17.26,3.45,5.68,7.03,11.27,10.76,16.77,3.71,5.5,7.56,10.92,11.54,16.23,2.82,3.78,5.73,7.49,8.68,11.16v380.43h629.56v-356.56c1.95-2.09,3.9-4.19,5.81-6.32,4.43-4.94,8.74-10,12.94-15.14,4.19-5.15,8.26-10.4,12.2-15.75,3.94-5.34,7.75-10.78,11.43-16.3,3.68-5.53,7.24-11.14,10.65-16.84,3.41-5.7,6.69-11.48,9.83-17.33,3.14-5.85,6.13-11.78,8.99-17.77,2.85-6,5.56-12.06,8.12-18.18,2.57-6.12,4.98-12.31,7.25-18.55,2.28-6.24,4.39-12.54,6.36-18.88,1.97-6.34,3.79-12.73,5.45-19.16,1.66-6.42,3.17-12.89,4.53-19.4,1.35-6.5,2.55-13.03,3.6-19.59,1.04-6.56,1.92-13.14,2.65-19.74.73-6.61,1.3-13.22,1.71-19.85h-351Z"/>
    </g>
    <path class="cls-9" d="M966.64,389.64h343.24c-.4-6.26-.94-12.5-1.62-18.74-.68-6.23-1.5-12.45-2.46-18.64-.96-6.2-2.07-12.37-3.3-18.52-1.24-6.15-2.62-12.27-4.13-18.35-1.52-6.09-3.17-12.14-4.96-18.14-1.79-6.01-3.71-11.99-5.77-17.91-2.06-5.92-4.25-11.79-6.57-17.62-2.33-5.82-4.78-11.59-7.36-17.31-2.58-5.72-5.29-11.38-8.14-16.96-2.84-5.6-5.8-11.12-8.88-16.58-3.09-5.46-6.3-10.85-9.63-16.16-3.33-5.31-6.78-10.55-10.35-15.71-3.57-5.16-7.25-10.24-11.05-15.22-3.79-4.99-7.69-9.9-11.72-14.71-4.01-4.82-8.14-9.54-12.37-14.17-4.22-4.63-8.56-9.17-13-13.6-4.43-4.43-8.97-8.77-13.59-13-4.63-4.23-9.35-8.36-14.17-12.37-4.82-4.01-9.72-7.92-14.71-11.72-4.99-3.8-10.07-7.48-15.23-11.04-5.15-3.57-10.39-7.02-15.71-10.35-5.31-3.33-10.7-6.54-16.15-9.63-5.46-3.09-10.99-6.06-16.58-8.89-5.6-2.84-11.25-5.55-16.96-8.13-5.71-2.58-11.48-5.03-17.31-7.36-5.82-2.33-11.69-4.52-17.62-6.57-5.92-2.06-11.89-3.98-17.9-5.77-6.01-1.79-12.06-3.44-18.14-4.95-6.09-1.52-12.2-2.89-18.35-4.13-6.15-1.25-12.32-2.34-18.52-3.3-6.2-.96-12.41-1.78-18.65-2.47-6.23-.68-12.48-1.22-18.74-1.62v336.85c23.01,8.76,40.6,28.48,46.4,52.79Z"/>
  </g>
</svg>